<?xml version="1.0" encoding="UTF-8" standalone="no"?>
<!-- Created with Inkscape (http://www.inkscape.org/) -->

<svg
   xmlns:dc="http://purl.org/dc/elements/1.1/"
   xmlns:cc="http://creativecommons.org/ns#"
   xmlns:rdf="http://www.w3.org/1999/02/22-rdf-syntax-ns#"
   xmlns:svg="http://www.w3.org/2000/svg"
   xmlns="http://www.w3.org/2000/svg"
   xmlns:xlink="http://www.w3.org/1999/xlink"
   xmlns:sodipodi="http://sodipodi.sourceforge.net/DTD/sodipodi-0.dtd"
   xmlns:inkscape="http://www.inkscape.org/namespaces/inkscape"
   width="744.09448"
   height="1052.36"
   id="svg2"
   version="1.1"
   inkscape:version="0.48.1 "
   sodipodi:docname="mas_icon.svg">
  <defs
     id="defs4">
    <linearGradient
       id="linearGradient3829">
      <stop
         style="stop-color:#ffffff;stop-opacity:0.46846846;"
         offset="0"
         id="stop3831" />
      <stop
         id="stop3837"
         offset="0.5"
         style="stop-color:#ecfee9;stop-opacity:0.49803922;" />
      <stop
         style="stop-color:#54f83c;stop-opacity:1;"
         offset="1"
         id="stop3833" />
    </linearGradient>
    <inkscape:perspective
       sodipodi:type="inkscape:persp3d"
       inkscape:vp_x="0 : 526.18109 : 1"
       inkscape:vp_y="0 : 1000 : 0"
       inkscape:vp_z="744.09448 : 526.18109 : 1"
       inkscape:persp3d-origin="372.04724 : 350.78739 : 1"
       id="perspective10" />
    <radialGradient
       inkscape:collect="always"
       xlink:href="#linearGradient3829"
       id="radialGradient3835"
       cx="374.89844"
       cy="504.65552"
       fx="374.89844"
       fy="504.65552"
       r="21.254744"
       gradientTransform="matrix(1,0,0,1.0295411,0,-14.908085)"
       gradientUnits="userSpaceOnUse" />
  </defs>
  <sodipodi:namedview
     id="base"
     pagecolor="#ffffff"
     bordercolor="#666666"
     borderopacity="1.0"
     inkscape:pageopacity="0.0"
     inkscape:pageshadow="2"
     inkscape:zoom="2.8284272"
     inkscape:cx="606.09078"
     inkscape:cy="549.99851"
     inkscape:document-units="px"
     inkscape:current-layer="layer1"
     showgrid="false"
     inkscape:window-width="2560"
     inkscape:window-height="1388"
     inkscape:window-x="-8"
     inkscape:window-y="-8"
     inkscape:window-maximized="1"
     showborder="false"
     showguides="true"
     inkscape:guide-bbox="true">
    <sodipodi:guide
       orientation="0,1"
       position="499.20172,763.13816"
       id="guide3839" />
  </sodipodi:namedview>
  <metadata
     id="metadata7">
    <rdf:RDF>
      <cc:Work
         rdf:about="">
        <dc:format>image/svg+xml</dc:format>
        <dc:type
           rdf:resource="http://purl.org/dc/dcmitype/StillImage" />
        <dc:title></dc:title>
      </cc:Work>
    </rdf:RDF>
  </metadata>
  <g
     inkscape:label="Layer 1"
     inkscape:groupmode="layer"
     id="layer1"
     transform="translate(0,-0.00218262)">
    <path
       sodipodi:type="arc"
       style="fill:#51da3d;fill-opacity:1;fill-rule:nonzero;stroke:none"
       id="path2830"
       sodipodi:cx="374.89844"
       sodipodi:cy="504.65552"
       sodipodi:rx="21.249031"
       sodipodi:ry="21.876755"
       d="m 367.2144,525.05179 a 21.249031,21.876755 0 1 1 0.008,0.003"
       transform="matrix(0.88215599,0,0,0.85684387,-49.733692,36.94577)"
       sodipodi:start="1.9407992"
       sodipodi:end="8.2235883"
       sodipodi:open="true" />
    <path
       sodipodi:open="true"
       sodipodi:end="8.2235883"
       sodipodi:start="1.9407992"
       transform="matrix(0.82334559,0,0,0.79972094,-27.777728,65.667435)"
       d="m 367.2144,525.05179 a 21.249031,21.876755 0 1 1 0.008,0.003"
       sodipodi:ry="21.876755"
       sodipodi:rx="21.249031"
       sodipodi:cy="504.65552"
       sodipodi:cx="374.89844"
       id="path3609"
       style="fill:#7ffa6d;fill-opacity:1;fill-rule:nonzero;stroke:none"
       sodipodi:type="arc" />
    <g
       id="g3623"
       transform="matrix(-1,0,0,1,598.59092,-29.566565)">
      <path
         sodipodi:open="true"
         sodipodi:end="8.2235883"
         sodipodi:start="1.9407992"
         transform="matrix(0.10857427,0,0,0.1054589,329.15346,447.23678)"
         d="m 367.2144,525.05179 c -10.94133,-4.36914 -16.37077,-17.04275 -12.12699,-28.3073 4.24377,-11.26455 16.55373,-16.85439 27.49506,-12.48525 10.94133,4.36915 16.37077,17.04276 12.127,28.30731 -4.24259,11.26139 -16.54727,16.85183 -27.48722,12.48837"
         sodipodi:ry="21.876755"
         sodipodi:rx="21.249031"
         sodipodi:cy="504.65552"
         sodipodi:cx="374.89844"
         id="path3615"
         style="fill:#127704;fill-opacity:1;fill-rule:nonzero;stroke:none"
         sodipodi:type="arc" />
      <rect
         y="491.75366"
         x="370.92407"
         height="8.8225698"
         width="1.2498871"
         id="rect3619"
         style="fill:#127704;fill-opacity:1;fill-rule:nonzero;stroke:none" />
    </g>
    <g
       transform="matrix(2.7991065,0,0,2.7991065,-755.98957,-923.39361)"
       id="g3633">
      <path
         sodipodi:type="arc"
         style="fill:#127704;fill-opacity:1;fill-rule:nonzero;stroke:none"
         id="path3635"
         sodipodi:cx="374.89844"
         sodipodi:cy="504.65552"
         sodipodi:rx="21.249031"
         sodipodi:ry="21.876755"
         d="m 367.2144,525.05179 c -10.94133,-4.36914 -16.37077,-17.04275 -12.12699,-28.3073 4.24377,-11.26455 16.55373,-16.85439 27.49506,-12.48525 10.94133,4.36915 16.37077,17.04276 12.127,28.30731 -4.24259,11.26139 -16.54727,16.85183 -27.48722,12.48837"
         transform="matrix(0.10857427,0,0,0.1054589,329.15346,447.23678)"
         sodipodi:start="1.9407992"
         sodipodi:end="8.2235883"
         sodipodi:open="true" />
      <rect
         style="fill:#127704;fill-opacity:1;fill-rule:nonzero;stroke:none"
         id="rect3637"
         width="1.2498871"
         height="8.8225698"
         x="370.92407"
         y="491.75366" />
    </g>
    <g
       id="g3639"
       transform="matrix(0.42425251,0.31128502,-0.31128502,0.42425251,230.08176,138.22709)">
      <path
         sodipodi:open="true"
         sodipodi:end="8.2235883"
         sodipodi:start="1.9407992"
         transform="matrix(0.10857427,0,0,0.1054589,329.15346,447.23678)"
         d="m 367.2144,525.05179 c -10.94133,-4.36914 -16.37077,-17.04275 -12.12699,-28.3073 4.24377,-11.26455 16.55373,-16.85439 27.49506,-12.48525 10.94133,4.36915 16.37077,17.04276 12.127,28.30731 -4.24259,11.26139 -16.54727,16.85183 -27.48722,12.48837"
         sodipodi:ry="21.876755"
         sodipodi:rx="21.249031"
         sodipodi:cy="504.65552"
         sodipodi:cx="374.89844"
         id="path3641"
         style="fill:#127704;fill-opacity:1;fill-rule:nonzero;stroke:none"
         sodipodi:type="arc" />
      <rect
         y="491.75366"
         x="370.92407"
         height="8.8225698"
         width="1.2498871"
         id="rect3643"
         style="fill:#127704;fill-opacity:1;fill-rule:nonzero;stroke:none" />
    </g>
    <g
       id="g3667"
       style="font-size:12px;font-style:normal;font-weight:normal;text-align:end;text-anchor:end;fill:#45ff00;fill-opacity:1;stroke:#ffffff;stroke-width:0.82163012;stroke-miterlimit:4;stroke-opacity:1;stroke-dasharray:none;font-family:Bitstream Vera Sans"
       transform="matrix(0.95861701,0,0,0.86920999,-191.00326,46.030007)">
      <path
         sodipodi:nodetypes="czczscccccccczc"
         id="path3669"
         style="font-size:28px;fill:#45ff00;fill-opacity:1;stroke:#ffffff;stroke-width:0.82163012;stroke-miterlimit:4;stroke-opacity:1;stroke-dasharray:none;font-family:Arial Black;-inkscape-font-specification:Arial Black"
         d="m 508.58756,447.32014 c 1.61972,-2.56445 5.3969,-1.86848 7.08852,0.0326 1.69161,1.9011 2.87275,12.22793 2.87275,12.22793 0,0 1.51966,-10.6282 3.13086,-12.19531 1.6112,-1.56711 3.88357,-1.87965 5.89253,-0.0652 2.35972,2.13122 2.22856,20.1082 2.22856,20.1082 l -3.64535,0.16308 -4.15818,-8.04446 -1.17889,7.88138 -4.58008,0 -1.89902,-7.42476 -3.47873,7.53892 -3.60467,-0.11416 c 0,0 -0.28802,-17.54375 1.3317,-20.1082 l 0,-2e-5 z" />
    </g>
    <g
       id="g3026"
       transform="translate(-157.22807,-85.626698)">
      <path
         sodipodi:type="arc"
         style="fill:#127704;fill-opacity:1;fill-rule:nonzero;stroke:none"
         id="path3673"
         sodipodi:cx="374.89844"
         sodipodi:cy="504.65552"
         sodipodi:rx="21.249031"
         sodipodi:ry="21.876755"
         d="m 367.2144,525.05179 c -10.94133,-4.36914 -16.37077,-17.04275 -12.12699,-28.3073 4.24377,-11.26455 16.55373,-16.85439 27.49506,-12.48525 10.94133,4.36915 16.37077,17.04276 12.127,28.30731 -4.24259,11.26139 -16.54727,16.85183 -27.48722,12.48837"
         transform="matrix(-0.75577347,0,0,0.73408773,746.56039,125.37272)"
         sodipodi:start="1.9407992"
         sodipodi:end="8.2235883"
         sodipodi:open="true" />
      <rect
         transform="scale(-1,1)"
         style="fill:#127704;fill-opacity:1;fill-rule:nonzero;stroke:none"
         id="rect3675"
         width="8.700326"
         height="22.805733"
         x="-455.87665"
         y="473.81091" />
      <g
         transform="matrix(-0.75606626,0,0,0.75606626,787.33029,118.58963)"
         id="g3699">
        <path
           sodipodi:open="true"
           sodipodi:end="8.2235883"
           sodipodi:start="1.9407992"
           transform="matrix(0.88215599,0,0,0.85684387,98.240821,66.443147)"
           d="m 367.2144,525.05179 c -10.94133,-4.36914 -16.37077,-17.04275 -12.12699,-28.3073 4.24377,-11.26455 16.55373,-16.85439 27.49506,-12.48525 10.94133,4.36915 16.37077,17.04276 12.127,28.30731 -4.24259,11.26139 -16.54727,16.85183 -27.48722,12.48837"
           sodipodi:ry="21.876755"
           sodipodi:rx="21.249031"
           sodipodi:cy="504.65552"
           sodipodi:cx="374.89844"
           id="path3657"
           style="fill:#51da3d;fill-opacity:1;fill-rule:nonzero;stroke:none"
           sodipodi:type="arc" />
        <path
           sodipodi:type="arc"
           style="fill:#7ffa6d;fill-opacity:1;fill-rule:nonzero;stroke:none"
           id="path3659"
           sodipodi:cx="374.89844"
           sodipodi:cy="504.65552"
           sodipodi:rx="21.249031"
           sodipodi:ry="21.876755"
           d="m 367.2144,525.05179 c -10.94133,-4.36914 -16.37077,-17.04275 -12.12699,-28.3073 4.24377,-11.26455 16.55373,-16.85439 27.49506,-12.48525 10.94133,4.36915 16.37077,17.04276 12.127,28.30731 -4.24259,11.26139 -16.54727,16.85183 -27.48722,12.48837"
           transform="matrix(0.82334559,0,0,0.79972094,120.19678,95.164812)"
           sodipodi:start="1.9407992"
           sodipodi:end="8.2235883"
           sodipodi:open="true" />
        <g
           transform="matrix(1.0352917,0,0,1.0352917,-107.13423,25.060101)"
           style="font-size:12px;font-style:normal;font-weight:normal;text-align:end;text-anchor:end;fill:#000000;fill-opacity:1;stroke:none;font-family:Bitstream Vera Sans"
           id="flowRoot2816">
          <path
             inkscape:connector-curvature="0"
             d="m 508.58756,447.32014 c 1.61972,-2.56445 5.3969,-1.86848 7.08852,0.0326 1.69161,1.9011 2.87275,12.22793 2.87275,12.22793 0,0 1.51966,-10.6282 3.13086,-12.19531 1.6112,-1.56711 3.88357,-1.87965 5.89253,-0.0652 2.35972,2.13122 2.81228,18.2387 1.52319,19.23941 -1.28909,1.00071 -2.79268,1.41466 -3.75672,0.60861 -0.96404,-0.80605 -3.34144,-7.6212 -3.34144,-7.6212 0,0 -0.33683,7.05086 -1.17889,7.88138 -0.84206,0.83052 -3.8888,0.81861 -4.58008,0 -0.69128,-0.81861 -1.89902,-7.42476 -1.89902,-7.42476 0,0 -1.86436,7.18626 -3.47873,7.53892 -1.61437,0.35266 -1.20475,0.79216 -3.08492,-0.55969 -1.88018,-1.35186 -0.80777,-17.09822 0.81195,-19.66267 l 0,-2e-5 z"
             style="font-size:28px;font-family:Arial Black;-inkscape-font-specification:Arial Black"
             id="path2833"
             sodipodi:nodetypes="czczszzczzczzzc" />
        </g>
      </g>
    </g>
    <g
       id="g3681"
       style="font-size:12px;font-style:normal;font-weight:normal;text-align:end;text-anchor:end;fill:#000000;fill-opacity:1;stroke:none;font-family:Bitstream Vera Sans"
       transform="matrix(1.0352917,0,0,1.0352917,-256.14649,-5.3828528)">
      <path
         sodipodi:nodetypes="czczscccccccczc"
         id="path3683"
         style="font-size:28px;font-family:Arial Black;-inkscape-font-specification:Arial Black"
         d="m 508.58756,447.32014 c 1.61972,-2.56445 5.3969,-1.86848 7.08852,0.0326 1.69161,1.9011 2.87275,12.22793 2.87275,12.22793 0,0 1.51966,-10.6282 3.13086,-12.19531 1.6112,-1.56711 3.88357,-1.87965 5.89253,-0.0652 2.35972,2.13122 2.22856,20.1082 2.22856,20.1082 l -3.64535,0.16308 -4.15818,-8.04446 -1.17889,7.88138 -4.58008,0 -1.89902,-7.42476 -3.47873,7.53892 -3.60467,-0.11416 c 0,0 -0.28802,-17.54375 1.3317,-20.1082 l 0,-2e-5 z" />
    </g>
    <path
       sodipodi:type="arc"
       style="fill:#51da3d;fill-opacity:1;fill-rule:nonzero;stroke:none"
       id="path3685"
       sodipodi:cx="374.89844"
       sodipodi:cy="504.65552"
       sodipodi:rx="21.249031"
       sodipodi:ry="21.876755"
       d="m 367.2144,525.05179 a 21.249031,21.876755 0 1 1 0.008,0.003"
       transform="matrix(0.88215599,0,0,0.85684387,21.217204,62.337961)"
       sodipodi:start="1.9407992"
       sodipodi:end="8.2235883"
       sodipodi:open="true" />
    <path
       sodipodi:open="true"
       sodipodi:end="8.2235883"
       sodipodi:start="1.9407992"
       transform="matrix(0.82334559,0,0,0.79972094,43.173163,91.059626)"
       d="m 367.2144,525.05179 a 21.249031,21.876755 0 1 1 0.008,0.003"
       sodipodi:ry="21.876755"
       sodipodi:rx="21.249031"
       sodipodi:cy="504.65552"
       sodipodi:cx="374.89844"
       id="path3687"
       style="fill:#7ffa6d;fill-opacity:1;fill-rule:nonzero;stroke:none"
       sodipodi:type="arc" />
    <g
       id="g3689"
       transform="matrix(6.9608893,0,0,6.9608893,-2222.7014,-2988.7617)">
      <path
         sodipodi:open="true"
         sodipodi:end="8.2235883"
         sodipodi:start="1.9407992"
         transform="matrix(0.10857427,0,0,0.1054589,329.15346,447.23678)"
         d="m 367.2144,525.05179 c -10.94133,-4.36914 -16.37077,-17.04275 -12.12699,-28.3073 4.24377,-11.26455 16.55373,-16.85439 27.49506,-12.48525 10.94133,4.36915 16.37077,17.04276 12.127,28.30731 -4.24259,11.26139 -16.54727,16.85183 -27.48722,12.48837"
         sodipodi:ry="21.876755"
         sodipodi:rx="21.249031"
         sodipodi:cy="504.65552"
         sodipodi:cx="374.89844"
         id="path3691"
         style="fill:#127704;fill-opacity:1;fill-rule:nonzero;stroke:none"
         sodipodi:type="arc" />
      <rect
         y="491.75366"
         x="370.92407"
         height="8.8225698"
         width="1.2498871"
         id="rect3693"
         style="fill:#127704;fill-opacity:1;fill-rule:nonzero;stroke:none" />
    </g>
    <g
       id="g3695"
       style="font-size:12px;font-style:normal;font-weight:normal;text-align:end;text-anchor:end;fill:#000000;fill-opacity:1;stroke:none;font-family:Bitstream Vera Sans"
       transform="matrix(1.0352917,0,0,1.0352917,-184.15785,20.954915)">
      <path
         sodipodi:nodetypes="czczszzczzczzzc"
         id="path3697"
         style="font-size:28px;font-family:Arial Black;-inkscape-font-specification:Arial Black"
         d="m 508.58756,447.32014 c 1.61972,-2.56445 5.3969,-1.86848 7.08852,0.0326 1.69161,1.9011 2.87275,12.22793 2.87275,12.22793 0,0 1.51966,-10.6282 3.13086,-12.19531 1.6112,-1.56711 3.88357,-1.87965 5.89253,-0.0652 2.35972,2.13122 2.81228,18.2387 1.52319,19.23941 -1.28909,1.00071 -2.79268,1.41466 -3.75672,0.60861 -0.96404,-0.80605 -3.34144,-7.6212 -3.34144,-7.6212 0,0 -0.33683,7.05086 -1.17889,7.88138 -0.84206,0.83052 -3.8888,0.81861 -4.58008,0 -0.69128,-0.81861 -1.89902,-7.42476 -1.89902,-7.42476 0,0 -1.86436,7.18626 -3.47873,7.53892 -1.61437,0.35266 -1.20475,0.79216 -3.08492,-0.55969 -1.88018,-1.35186 -0.80777,-17.09822 0.81195,-19.66267 l 0,-2e-5 z" />
    </g>
    <path
       sodipodi:type="arc"
       style="fill:#127704;fill-opacity:1;fill-rule:nonzero;stroke:none"
       id="path3012"
       sodipodi:cx="374.89844"
       sodipodi:cy="504.65552"
       sodipodi:rx="21.249031"
       sodipodi:ry="21.876755"
       d="m 367.2144,525.05179 a 21.249031,21.876755 0 1 1 0.008,0.003"
       transform="matrix(-0.75577347,0,0,0.73408773,861.17687,122.59416)"
       sodipodi:start="1.9407992"
       sodipodi:end="8.2235883"
       sodipodi:open="true"
       inkscape:export-filename="D:\Home\Programs\mas-3\trunk\images\export.png"
       inkscape:export-xdpi="1401.1334"
       inkscape:export-ydpi="1401.1334" />
    <rect
       transform="scale(-1,1)"
       style="fill:#127704;fill-opacity:1;fill-rule:nonzero;stroke:none"
       id="rect3014"
       width="8.700326"
       height="19.597647"
       x="-570.4931"
       y="474.24045"
       inkscape:export-filename="D:\Home\Programs\mas-3\trunk\images\export.png"
       inkscape:export-xdpi="1401.1334"
       inkscape:export-ydpi="1401.1334" />
    <path
       sodipodi:type="arc"
       style="fill:#3ac626;fill-opacity:1;fill-rule:nonzero;stroke:none"
       id="path3018"
       sodipodi:cx="374.89844"
       sodipodi:cy="504.65552"
       sodipodi:rx="21.249031"
       sodipodi:ry="21.876755"
       d="m 367.2144,525.05179 a 21.249031,21.876755 0 1 1 0.008,0.003"
       transform="matrix(-0.66696838,0,0,0.64783074,827.6702,166.04649)"
       sodipodi:start="1.9407992"
       sodipodi:end="8.2235883"
       sodipodi:open="true"
       inkscape:export-filename="D:\Home\Programs\mas-3\trunk\images\export.png"
       inkscape:export-xdpi="1401.1334"
       inkscape:export-ydpi="1401.1334" />
    <path
       sodipodi:open="true"
       sodipodi:end="8.2235883"
       sodipodi:start="1.9407992"
       transform="matrix(-0.62250382,0,0,0.60464202,811.07004,187.76197)"
       d="m 367.2144,525.05179 a 21.249031,21.876755 0 1 1 0.008,0.003"
       sodipodi:ry="21.876755"
       sodipodi:rx="21.249031"
       sodipodi:cy="504.65552"
       sodipodi:cx="374.89844"
       id="path3020"
       style="fill:#7ffa6d;fill-opacity:1;fill-rule:nonzero;stroke:none"
       sodipodi:type="arc"
       inkscape:export-filename="D:\Home\Programs\mas-3\trunk\images\export.png"
       inkscape:export-xdpi="1401.1334"
       inkscape:export-ydpi="1401.1334" />
    <path
       sodipodi:type="arc"
       style="fill:url(#radialGradient3835);fill-opacity:1.0;fill-rule:nonzero;stroke:none"
       id="path3817"
       sodipodi:cx="374.89844"
       sodipodi:cy="504.65552"
       sodipodi:rx="21.249031"
       sodipodi:ry="21.876755"
       d="m 367.2144,525.05179 a 21.249031,21.876755 0 1 1 0.008,0.003"
       transform="matrix(-0.62250382,0,0,0.60464202,811.07004,187.76197)"
       sodipodi:start="1.9407992"
       sodipodi:end="8.2235883"
       sodipodi:open="true"
       inkscape:export-filename="D:\Home\Programs\mas-3\trunk\images\export.png"
       inkscape:export-xdpi="1401.1334"
       inkscape:export-ydpi="1401.1334" />
    <g
       id="g3022"
       style="font-size:12px;font-style:normal;font-weight:normal;text-align:end;text-anchor:end;fill:#000000;fill-opacity:1;stroke:none;font-family:Bitstream Vera Sans"
       transform="matrix(-0.78274912,0,0,0.78274912,983.43037,135.24629)"
       inkscape:export-filename="D:\Home\Programs\mas-3\trunk\images\export.png"
       inkscape:export-xdpi="1401.1334"
       inkscape:export-ydpi="1401.1334">
      <path
         sodipodi:nodetypes="czczszzczzczcc"
         id="path3024"
         style="font-size:28px;font-family:Arial Black;-inkscape-font-specification:Arial Black"
         d="m 508.99999,447.69134 c 1.61972,-2.56445 4.19888,-1.79777 5.8905,0.10331 1.69161,1.9011 3.65834,11.78602 3.65834,11.78602 0,0 1.51966,-10.6282 3.13086,-12.19531 1.6112,-1.56711 3.88357,-1.87965 5.89253,-0.0652 2.35972,2.13122 2.81228,18.2387 1.52319,19.23941 -1.28909,1.00071 -2.79268,1.41466 -3.75672,0.60861 -0.96404,-0.80605 -3.34144,-7.6212 -3.34144,-7.6212 0,0 -0.33683,7.05086 -1.17889,7.88138 -0.84206,0.83052 -3.8888,0.81861 -4.58008,0 -0.69128,-0.81861 -1.89902,-7.42476 -1.89902,-7.42476 0,0 -2.0313,7.0095 -3.02702,7.63614 -0.99572,0.62664 -2.70718,0.40328 -3.93924,-0.69226 -0.65581,-6.49884 -0.31423,-16.49744 1.62699,-19.25614 z"
         inkscape:connector-curvature="0" />
    </g>
  </g>
</svg>
